<svg width="34" height="34" viewBox="0 0 34 34" fill="none" xmlns="http://www.w3.org/2000/svg">
<path d="M16.9999 2.83334C15.1395 2.83334 13.2973 3.19977 11.5786 3.91171C9.85979 4.62365 8.29807 5.66716 6.98257 6.98266C4.32581 9.63942 2.83325 13.2428 2.83325 17C2.83325 23.2617 6.89909 28.5742 12.5233 30.4583C13.2316 30.5717 13.4583 30.1325 13.4583 29.75V27.3558C9.53409 28.2058 8.69825 25.4575 8.69825 25.4575C8.04659 23.8142 7.12575 23.375 7.12575 23.375C5.83659 22.4967 7.22492 22.525 7.22492 22.525C8.64159 22.6242 9.39242 23.9842 9.39242 23.9842C10.6249 26.1375 12.7074 25.5 13.5149 25.16C13.6424 24.2392 14.0108 23.6158 14.4074 23.2617C11.2624 22.9075 7.96159 21.6892 7.96159 16.2917C7.96159 14.7192 8.49992 13.4583 9.42075 12.4525C9.27909 12.0983 8.78325 10.625 9.56242 8.7125C9.56242 8.7125 10.7524 8.33 13.4583 10.1575C14.5774 9.84584 15.7958 9.69 16.9999 9.69C18.2041 9.69 19.4224 9.84584 20.5416 10.1575C23.2474 8.33 24.4374 8.7125 24.4374 8.7125C25.2166 10.625 24.7208 12.0983 24.5791 12.4525C25.4999 13.4583 26.0383 14.7192 26.0383 16.2917C26.0383 21.7033 22.7233 22.8933 19.5641 23.2475C20.0741 23.6867 20.5416 24.5508 20.5416 25.8683V29.75C20.5416 30.1325 20.7683 30.5858 21.4908 30.4583C27.1149 28.56 31.1666 23.2617 31.1666 17C31.1666 15.1396 30.8002 13.2974 30.0882 11.5787C29.3763 9.85987 28.3328 8.29815 27.0173 6.98266C25.7018 5.66716 24.14 4.62365 22.4213 3.91171C20.7025 3.19977 18.8603 2.83334 16.9999 2.83334Z" fill="#FFB273"/>
</svg>
