<svg width="34" height="34" viewBox="0 0 34 34" fill="none" xmlns="http://www.w3.org/2000/svg">
<path d="M11.0499 2.83334H22.9499C27.4833 2.83334 31.1666 6.51667 31.1666 11.05V22.95C31.1666 25.1292 30.3009 27.2191 28.76 28.7601C27.2191 30.301 25.1291 31.1667 22.9499 31.1667H11.0499C6.51659 31.1667 2.83325 27.4833 2.83325 22.95V11.05C2.83325 8.87081 3.69893 6.78087 5.23986 5.23994C6.78078 3.69902 8.87072 2.83334 11.0499 2.83334ZM10.7666 5.66667C9.41398 5.66667 8.11678 6.20399 7.16034 7.16043C6.20391 8.11686 5.66659 9.41407 5.66659 10.7667V23.2333C5.66659 26.0525 7.94742 28.3333 10.7666 28.3333H23.2333C24.5859 28.3333 25.8831 27.796 26.8395 26.8396C27.7959 25.8831 28.3333 24.5859 28.3333 23.2333V10.7667C28.3333 7.9475 26.0524 5.66667 23.2333 5.66667H10.7666ZM24.4374 7.79167C24.9071 7.79167 25.3575 7.97824 25.6896 8.31033C26.0217 8.64243 26.2083 9.09285 26.2083 9.5625C26.2083 10.0322 26.0217 10.4826 25.6896 10.8147C25.3575 11.1468 24.9071 11.3333 24.4374 11.3333C23.9678 11.3333 23.5173 11.1468 23.1852 10.8147C22.8532 10.4826 22.6666 10.0322 22.6666 9.5625C22.6666 9.09285 22.8532 8.64243 23.1852 8.31033C23.5173 7.97824 23.9678 7.79167 24.4374 7.79167ZM16.9999 9.91667C18.8785 9.91667 20.6802 10.6629 22.0086 11.9913C23.337 13.3197 24.0833 15.1214 24.0833 17C24.0833 18.8786 23.337 20.6803 22.0086 22.0087C20.6802 23.3371 18.8785 24.0833 16.9999 24.0833C15.1213 24.0833 13.3196 23.3371 11.9912 22.0087C10.6629 20.6803 9.91659 18.8786 9.91659 17C9.91659 15.1214 10.6629 13.3197 11.9912 11.9913C13.3196 10.6629 15.1213 9.91667 16.9999 9.91667ZM16.9999 12.75C15.8727 12.75 14.7917 13.1978 13.9947 13.9948C13.1977 14.7918 12.7499 15.8728 12.7499 17C12.7499 18.1272 13.1977 19.2082 13.9947 20.0052C14.7917 20.8022 15.8727 21.25 16.9999 21.25C18.1271 21.25 19.2081 20.8022 20.0051 20.0052C20.8022 19.2082 21.2499 18.1272 21.2499 17C21.2499 15.8728 20.8022 14.7918 20.0051 13.9948C19.2081 13.1978 18.1271 12.75 16.9999 12.75Z" fill="#FFB273"/>
</svg>
