<svg width="30" height="29" viewBox="0 0 30 29" fill="none" xmlns="http://www.w3.org/2000/svg">
<path d="M14.9999 0.833336C13.1395 0.833336 11.2973 1.19977 9.57857 1.91171C7.85979 2.62365 6.29807 3.66716 4.98257 4.98266C2.32581 7.63942 0.833252 11.2428 0.833252 15C0.833252 21.2617 4.89909 26.5742 10.5233 28.4583C11.2316 28.5717 11.4583 28.1325 11.4583 27.75V25.3558C7.53409 26.2058 6.69825 23.4575 6.69825 23.4575C6.04659 21.8142 5.12575 21.375 5.12575 21.375C3.83659 20.4967 5.22492 20.525 5.22492 20.525C6.64159 20.6242 7.39242 21.9842 7.39242 21.9842C8.62492 24.1375 10.7074 23.5 11.5149 23.16C11.6424 22.2392 12.0108 21.6158 12.4074 21.2617C9.26242 20.9075 5.96159 19.6892 5.96159 14.2917C5.96159 12.7192 6.49992 11.4583 7.42075 10.4525C7.27909 10.0983 6.78325 8.625 7.56242 6.7125C7.56242 6.7125 8.75242 6.33 11.4583 8.1575C12.5774 7.84584 13.7958 7.69 14.9999 7.69C16.2041 7.69 17.4224 7.84584 18.5416 8.1575C21.2474 6.33 22.4374 6.7125 22.4374 6.7125C23.2166 8.625 22.7208 10.0983 22.5791 10.4525C23.4999 11.4583 24.0383 12.7192 24.0383 14.2917C24.0383 19.7033 20.7233 20.8933 17.5641 21.2475C18.0741 21.6867 18.5416 22.5508 18.5416 23.8683V27.75C18.5416 28.1325 18.7683 28.5858 19.4908 28.4583C25.1149 26.56 29.1666 21.2617 29.1666 15C29.1666 13.1396 28.8002 11.2974 28.0882 9.57865C27.3763 7.85987 26.3328 6.29815 25.0173 4.98266C23.7018 3.66716 22.14 2.62365 20.4213 1.91171C18.7025 1.19977 16.8603 0.833336 14.9999 0.833336Z" fill="#FFB273"/>
</svg>
