<svg width="30" height="30" viewBox="0 0 30 30" fill="none" xmlns="http://www.w3.org/2000/svg">
<path d="M9.04992 0.833336H20.9499C25.4833 0.833336 29.1666 4.51667 29.1666 9.05V20.95C29.1666 23.1292 28.3009 25.2191 26.76 26.7601C25.2191 28.301 23.1291 29.1667 20.9499 29.1667H9.04992C4.51659 29.1667 0.833252 25.4833 0.833252 20.95V9.05C0.833252 6.87081 1.69893 4.78087 3.23986 3.23994C4.78078 1.69902 6.87072 0.833336 9.04992 0.833336ZM8.76659 3.66667C7.41398 3.66667 6.11678 4.20399 5.16034 5.16043C4.20391 6.11686 3.66659 7.41407 3.66659 8.76667V21.2333C3.66659 24.0525 5.94742 26.3333 8.76659 26.3333H21.2333C22.5859 26.3333 23.8831 25.796 24.8395 24.8396C25.7959 23.8831 26.3333 22.5859 26.3333 21.2333V8.76667C26.3333 5.9475 24.0524 3.66667 21.2333 3.66667H8.76659ZM22.4374 5.79167C22.9071 5.79167 23.3575 5.97824 23.6896 6.31033C24.0217 6.64243 24.2083 7.09285 24.2083 7.5625C24.2083 8.03216 24.0217 8.48258 23.6896 8.81467C23.3575 9.14677 22.9071 9.33334 22.4374 9.33334C21.9678 9.33334 21.5173 9.14677 21.1852 8.81467C20.8532 8.48258 20.6666 8.03216 20.6666 7.5625C20.6666 7.09285 20.8532 6.64243 21.1852 6.31033C21.5173 5.97824 21.9678 5.79167 22.4374 5.79167ZM14.9999 7.91667C16.8785 7.91667 18.6802 8.66295 20.0086 9.99133C21.337 11.3197 22.0833 13.1214 22.0833 15C22.0833 16.8786 21.337 18.6803 20.0086 20.0087C18.6802 21.3371 16.8785 22.0833 14.9999 22.0833C13.1213 22.0833 11.3196 21.3371 9.99125 20.0087C8.66286 18.6803 7.91659 16.8786 7.91659 15C7.91659 13.1214 8.66286 11.3197 9.99125 9.99133C11.3196 8.66295 13.1213 7.91667 14.9999 7.91667ZM14.9999 10.75C13.8727 10.75 12.7917 11.1978 11.9947 11.9948C11.1977 12.7918 10.7499 13.8728 10.7499 15C10.7499 16.1272 11.1977 17.2082 11.9947 18.0052C12.7917 18.8022 13.8727 19.25 14.9999 19.25C16.1271 19.25 17.2081 18.8022 18.0051 18.0052C18.8022 17.2082 19.2499 16.1272 19.2499 15C19.2499 13.8728 18.8022 12.7918 18.0051 11.9948C17.2081 11.1978 16.1271 10.75 14.9999 10.75Z" fill="#FFB273"/>
</svg>
